# xmcd
#
# Track frame offsets:
#       150
#       16561
#       36103
#       55266
#       71557
#       89882
#       114671
#
# Disc length: 1713 seconds
#
# Revision: 0
# Processed by: cddbd v1.5.2PL0 Copyright (c) Steve Scherf et al.
# Submitted via: WaveLab 4.01
#
DISCID=5806af07
DTITLE=The Rhythm Dawgs - Because We Can
DYEAR=1999
DGENRE=Electric
TTITLE0=Howlin' At The Wrong Moon
TTITLE1=I'm Ready
TTITLE2=Rock Me Baby
TTITLE3=Dirty Mistreater
TTITLE4=Black Cat Bone
TTITLE5=Rocky Mountain Way
TTITLE6=Your Cheatin' Heart
EXTD=
EXTT0=
EXTT1=
EXTT2=
EXTT3=
EXTT4=
EXTT5=
EXTT6=
PLAYORDER=
